<?xml version="1.0" encoding="UTF-8" standalone="no"?><!DOCTYPE svg PUBLIC "-//W3C//DTD SVG 1.1//EN" "http://www.w3.org/Graphics/SVG/1.1/DTD/svg11.dtd"><svg width="100%" height="100%" viewBox="0 0 2845 2845" version="1.1" xmlns="http://www.w3.org/2000/svg" xmlns:xlink="http://www.w3.org/1999/xlink" xml:space="preserve" xmlns:serif="http://www.serif.com/" style="fill-rule:evenodd;clip-rule:evenodd;stroke-linejoin:round;stroke-miterlimit:2;"><path d="M2838.89,430.556c-0,-234.564 -190.436,-425 -425,-425l-1983.33,-0c-234.564,-0 -425,190.436 -425,425l-0,1983.33c-0,234.564 190.436,425 425,425l1983.33,-0c234.564,-0 425,-190.436 425,-425l-0,-1983.33Z" style="fill:#171717;"/><g><clipPath id="_clip1"><rect x="587.084" y="189.211" width="1670.28" height="2470.24"/></clipPath><g clip-path="url(#_clip1)"><path d="M1307.51,1828.56l-960.834,-0l-168.375,391.654c-41.484,96.389 -62.226,168.375 -62.226,215.959c0,37.824 17.997,71.072 53.99,99.744c35.993,28.673 113.775,47.279 233.346,55.82l-0,67.716l-781.479,-0l-0,-67.716c103.709,-18.302 170.815,-42.094 201.318,-71.376c62.225,-58.565 131.161,-177.526 206.808,-356.882l872.987,-2042.46l64.055,-0l863.836,2064.42c69.546,165.935 132.687,273.609 189.422,323.024c56.735,49.414 135.737,77.171 237.006,83.272l-0,67.716l-979.136,-0l-0,-67.716c98.828,-4.88 165.629,-21.352 200.402,-49.414c34.773,-28.063 52.16,-62.226 52.16,-102.489c-0,-53.685 -24.402,-138.483 -73.207,-254.393l-150.073,-356.881Zm-51.244,-135.432l-420.937,-1002.93l-431.918,1002.93l852.855,-0Z" style="fill:#1d4ed8;fill-rule:nonzero;"/></g><path d="M172.222,2663.07l0,-67.716l93.338,0c104.93,0 179.356,-33.553 223.28,-100.658c26.842,-40.264 40.264,-130.552 40.264,-270.864l-0,-1603.22c-0,-154.954 -17.082,-251.953 -51.245,-290.996c-47.584,-53.685 -118.35,-80.527 -212.299,-80.527l-93.338,-0l0,-67.716l1010.25,0c370.913,0 653.063,42.094 846.45,126.281c193.387,84.188 348.95,224.5 466.691,420.937c117.74,196.437 176.61,423.377 176.61,680.82c0,345.29 -104.929,633.846 -314.787,865.666c-235.481,258.663 -594.193,387.994 -1076.13,387.994l-1109.08,0Zm708.273,-179.355c154.953,34.163 284.895,51.244 389.824,51.244c283.065,0 517.935,-99.439 704.612,-298.316c186.676,-198.878 280.015,-468.521 280.015,-808.931c-0,-342.85 -93.339,-613.104 -280.015,-810.762c-186.677,-197.657 -426.428,-296.486 -719.253,-296.486c-109.81,0 -234.871,17.692 -375.183,53.075l-0,2110.18Z" style="fill:#1d35d8;fill-rule:nonzero;"/></g></svg>